<?xml version="1.0" encoding="UTF-8"?>
<svg xmlns="http://www.w3.org/2000/svg" xmlns:xlink="http://www.w3.org/1999/xlink" height="16px" viewBox="0 0 16 16" width="16px">
  <filter id="a" height="100%" width="100%" x="0%" y="0%">
    <feColorMatrix in="SourceGraphic" type="matrix" values="0 0 0 0 1 0 0 0 0 1 0 0 0 0 1 0 0 0 1 0"/>
  </filter>
  <mask id="b">
    <g filter="url(#a)">
      <path d="m 0 0 h 16 v 16 h -16 z" fill-opacity="0.3"/>
    </g>
  </mask>
  <clipPath id="c">
    <path d="m 0 0 h 1600 v 1200 h -1600 z"/>
  </clipPath>
  <mask id="d">
    <g filter="url(#a)">
      <path d="m 0 0 h 16 v 16 h -16 z" fill-opacity="0.05"/>
    </g>
  </mask>
  <clipPath id="e">
    <path d="m 0 0 h 1600 v 1200 h -1600 z"/>
  </clipPath>
  <mask id="f">
    <g filter="url(#a)">
      <path d="m 0 0 h 16 v 16 h -16 z" fill-opacity="0.05"/>
    </g>
  </mask>
  <clipPath id="g">
    <path d="m 0 0 h 1600 v 1200 h -1600 z"/>
  </clipPath>
  <mask id="h">
    <g filter="url(#a)">
      <path d="m 0 0 h 16 v 16 h -16 z" fill-opacity="0.05"/>
    </g>
  </mask>
  <clipPath id="i">
    <path d="m 0 0 h 1600 v 1200 h -1600 z"/>
  </clipPath>
  <mask id="j">
    <g filter="url(#a)">
      <path d="m 0 0 h 16 v 16 h -16 z" fill-opacity="0.05"/>
    </g>
  </mask>
  <clipPath id="k">
    <path d="m 0 0 h 1600 v 1200 h -1600 z"/>
  </clipPath>
  <mask id="l">
    <g filter="url(#a)">
      <path d="m 0 0 h 16 v 16 h -16 z" fill-opacity="0.05"/>
    </g>
  </mask>
  <clipPath id="m">
    <path d="m 0 0 h 1600 v 1200 h -1600 z"/>
  </clipPath>
  <mask id="n">
    <g filter="url(#a)">
      <path d="m 0 0 h 16 v 16 h -16 z" fill-opacity="0.05"/>
    </g>
  </mask>
  <clipPath id="o">
    <path d="m 0 0 h 1600 v 1200 h -1600 z"/>
  </clipPath>
  <mask id="p">
    <g filter="url(#a)">
      <path d="m 0 0 h 16 v 16 h -16 z" fill-opacity="0.3"/>
    </g>
  </mask>
  <clipPath id="q">
    <path d="m 0 0 h 1600 v 1200 h -1600 z"/>
  </clipPath>
  <mask id="r">
    <g filter="url(#a)">
      <path d="m 0 0 h 16 v 16 h -16 z" fill-opacity="0.5"/>
    </g>
  </mask>
  <clipPath id="s">
    <path d="m 0 0 h 1600 v 1200 h -1600 z"/>
  </clipPath>
  <g clip-path="url(#c)" mask="url(#b)" transform="matrix(1 0 0 1 -540 -201)">
    <path d="m 562.460938 212.058594 h 10.449218 c -1.183594 0.492187 -1.296875 2.460937 0 3 h -10.449218 z m 0 0" fill="#2e3436"/>
  </g>
  <g fill="#2e3436">
    <path d="m 3.003906 9.996094 l -1 4 h 11.992188 l -1 -4 h -2.996094 l -2.492188 2 h -3.503906 v -2 z m 0 0"/>
    <path d="m 2.007812 14.996094 h 11.992188 v 1 h -11.992188 z m 0 0"/>
    <path d="m 5.003906 8.996094 l 6.992188 -6.996094 c 1 0 2 1 2 1.996094 l -6.996094 7 h -2 z m 0 0" fill-rule="evenodd"/>
    <path d="m 12.917969 1.09375 c 1 0 2 1 2 2 l 0.996093 -1 c 0 -1 -0.75 -2 -1.996093 -2 z m 0 0"/>
  </g>
  <g clip-path="url(#e)" mask="url(#d)" transform="matrix(1 0 0 1 -540 -201)">
    <path d="m 16 748 h 1 v 1 h -1 z m 0 0" fill="#2e3436" fill-rule="evenodd"/>
  </g>
  <g clip-path="url(#g)" mask="url(#f)" transform="matrix(1 0 0 1 -540 -201)">
    <path d="m 17 747 h 1 v 1 h -1 z m 0 0" fill="#2e3436" fill-rule="evenodd"/>
  </g>
  <g clip-path="url(#i)" mask="url(#h)" transform="matrix(1 0 0 1 -540 -201)">
    <path d="m 18 750 h 1 v 1 h -1 z m 0 0" fill="#2e3436" fill-rule="evenodd"/>
  </g>
  <g clip-path="url(#k)" mask="url(#j)" transform="matrix(1 0 0 1 -540 -201)">
    <path d="m 16 750 h 1 v 1 h -1 z m 0 0" fill="#2e3436" fill-rule="evenodd"/>
  </g>
  <g clip-path="url(#m)" mask="url(#l)" transform="matrix(1 0 0 1 -540 -201)">
    <path d="m 17 751 h 1 v 1 h -1 z m 0 0" fill="#2e3436" fill-rule="evenodd"/>
  </g>
  <g clip-path="url(#o)" mask="url(#n)" transform="matrix(1 0 0 1 -540 -201)">
    <path d="m 19 751 h 1 v 1 h -1 z m 0 0" fill="#2e3436" fill-rule="evenodd"/>
  </g>
  <g clip-path="url(#q)" mask="url(#p)" transform="matrix(1 0 0 1 -540 -201)">
    <path d="m 136 776 v 7 h 7 v -7 z m 0 0" fill="#2e3436"/>
  </g>
  <g clip-path="url(#s)" mask="url(#r)" transform="matrix(1 0 0 1 -540 -201)">
    <path d="m 219 758 h 3 v 12 h -3 z m 0 0" fill="#2e3436"/>
  </g>
</svg>
