<?xml version="1.0" encoding="UTF-8" standalone="no"?>
<!-- Created with Inkscape (http://www.inkscape.org/) -->

<svg
   width="16"
   height="16"
   viewBox="0 0 16.000001 16"
   version="1.1"
   id="SVGRoot"
   sodipodi:docname="io.github.seadve.Noteworthy-symbolic.svg"
   inkscape:version="1.1.2 (0a00cf5339, 2022-02-04, custom)"
   shape-rendering="crispEdges"
   xmlns:inkscape="http://www.inkscape.org/namespaces/inkscape"
   xmlns:sodipodi="http://sodipodi.sourceforge.net/DTD/sodipodi-0.dtd"
   xmlns="http://www.w3.org/2000/svg"
   xmlns:svg="http://www.w3.org/2000/svg">
  <sodipodi:namedview
     id="namedview829"
     pagecolor="#ffffff"
     bordercolor="#666666"
     borderopacity="1.0"
     inkscape:pageshadow="2"
     inkscape:pageopacity="0.0"
     inkscape:pagecheckerboard="false"
     inkscape:document-units="px"
     showgrid="true"
     inkscape:zoom="17.755618"
     inkscape:cx="6.0262617"
     inkscape:cy="7.9693087"
     inkscape:window-width="1600"
     inkscape:window-height="831"
     inkscape:window-x="0"
     inkscape:window-y="0"
     inkscape:window-maximized="1"
     inkscape:current-layer="SVGRoot"
     inkscape:snap-object-midpoints="true"
     inkscape:snap-center="true"
     fit-margin-top="0"
     fit-margin-left="0"
     fit-margin-right="0"
     fit-margin-bottom="0"
     width="700.59998px"
     lock-margins="false"
     inkscape:showpageshadow="false"
     borderlayer="true"
     inkscape:snap-text-baseline="true"
     inkscape:snap-others="true"
     inkscape:snap-bbox="true"
     inkscape:bbox-paths="true"
     inkscape:bbox-nodes="true"
     inkscape:snap-bbox-edge-midpoints="true"
     inkscape:snap-bbox-midpoints="true">
    <inkscape:grid
       type="xygrid"
       id="grid892"
       originx="-89.322804"
       originy="-50.807003" />
  </sodipodi:namedview>
  <defs
     id="defs824" />
  <path
     id="path1050"
     style="fill:#2e3436;fill-opacity:1"
     inkscape:label="note"
     d="M 4.8798652,0 C 3.4138198,0 2.2054628,1.208357 2.2054628,2.6744023 v 8.9146717 c 0,1.466045 1.2083571,2.674402 2.6744024,2.674402 v -1.782933 c -0.5084136,0 -0.8914673,-0.383056 -0.8914673,-0.891469 V 4.4573362 h 8.0232031 v 7.1317378 c 0,0.508413 -0.383054,0.891469 -0.891466,0.891469 H 7.6464882 v 1.782933 h 3.4736468 c 1.466046,0 2.674402,-1.208357 2.674402,-2.674402 V 2.6744023 C 13.794537,1.0759085 12.718626,0 11.120135,0 Z m 1.3642781,9.4304742 c -0.906733,0 -1.6423811,0.7356488 -1.6423811,1.6423818 0,0.466195 0.1989211,0.911024 0.5475001,1.223247 V 16 L 6.2441433,15.17884 7.3390852,16 v -3.703897 c 0.348579,-0.312223 0.54744,-0.757052 0.54744,-1.223247 0,-0.906733 -0.735649,-1.6423818 -1.6423819,-1.6423818 z" />
</svg>
