<?xml version="1.0" encoding="UTF-8" standalone="no"?>
<!-- Created with Inkscape (http://www.inkscape.org/) -->

<svg
   width="700.59998"
   height="967.25586"
   viewBox="0 0 700.59998 967.25586"
   version="1.1"
   id="SVGRoot"
   sodipodi:docname="icon-thing.svg"
   inkscape:version="1.1.2 (0a00cf5339, 2022-02-04, custom)"
   xmlns:inkscape="http://www.inkscape.org/namespaces/inkscape"
   xmlns:sodipodi="http://sodipodi.sourceforge.net/DTD/sodipodi-0.dtd"
   xmlns="http://www.w3.org/2000/svg"
   xmlns:svg="http://www.w3.org/2000/svg">
  <sodipodi:namedview
     id="namedview829"
     pagecolor="#ffffff"
     bordercolor="#666666"
     borderopacity="1.0"
     inkscape:pageshadow="2"
     inkscape:pageopacity="0.0"
     inkscape:pagecheckerboard="0"
     inkscape:document-units="px"
     showgrid="true"
     inkscape:zoom="0.39187386"
     inkscape:cx="193.93996"
     inkscape:cy="49.760911"
     inkscape:window-width="1600"
     inkscape:window-height="831"
     inkscape:window-x="0"
     inkscape:window-y="0"
     inkscape:window-maximized="1"
     inkscape:current-layer="SVGRoot"
     inkscape:snap-object-midpoints="false"
     inkscape:snap-center="false"
     fit-margin-top="0"
     fit-margin-left="0"
     fit-margin-right="0"
     fit-margin-bottom="0">
    <inkscape:grid
       type="xygrid"
       id="grid892"
       originx="-187.18462"
       originy="-50.53846" />
  </sodipodi:namedview>
  <defs
     id="defs824" />
  <path
     id="path1050"
     style="stroke-width:53.8922"
     inkscape:label="note"
     d="M 161.67692,0 C 73.0494,0 0,73.0494 0,161.67693 V 700.6 c 0,88.62752 73.0494,161.6769 161.67692,161.6769 V 754.4923 c -30.73531,0 -53.89231,-23.15698 -53.89231,-53.8923 V 269.46154 H 592.81538 V 700.6 c 0,30.73532 -23.157,53.8923 -53.89231,53.8923 H 328.92891 V 862.2769 H 538.92307 C 627.5506,862.2769 700.6,789.22752 700.6,700.6 V 161.67693 C 700.6,65.04244 635.55756,0 538.92307,0 Z m 82.47541,570.10498 c -54.81514,0 -99.28772,44.47256 -99.28772,99.28772 0,28.18316 12.02548,55.07453 33.09832,73.94948 v 223.91366 l 66.1894,-49.64203 66.19303,49.64203 V 743.34218 c 21.07285,-18.87495 33.09469,-45.76632 33.09469,-73.94948 0,-54.81516 -44.47256,-99.28772 -99.28772,-99.28772 z" />
</svg>
